<?xml version="1.0" standalone="no"?><!DOCTYPE svg PUBLIC "-//W3C//DTD SVG 1.1//EN" "http://www.w3.org/Graphics/SVG/1.1/DTD/svg11.dtd"><svg t="1639731528837" class="icon" viewBox="0 0 1024 1024" version="1.1" xmlns="http://www.w3.org/2000/svg" p-id="7018" width="16" height="16" xmlns:xlink="http://www.w3.org/1999/xlink"><defs><style type="text/css"></style></defs><path d="M384 400.16c46.976 3.328 86.784 18.368 118.944 45.216 17.92 14.944 64.32 11.104 93.632-9.376 29.024-20.32 32.128-48.32-1.088-84.128a48 48 0 1 1 30.272-13.76c38.496 47.552 32.192 94.016-10.88 124.096-40 28-102.016 33.152-132.448 7.744-28.864-24.096-65.44-36.928-110.304-38.336A48 48 0 1 1 384 400v0.16zM480.32 739.2a243.904 243.904 0 0 0 1.184 39.68L96 512l71.264-49.312 27.936 19.552-42.976 29.76 328.128 227.168z m351.552-199.552L871.776 512l-42.976-29.76 27.936-19.552L928 512l-66.56 46.08a240.096 240.096 0 0 0-29.568-18.464z m-312.416 344.32c5.92 8.928 12.384 17.44 19.392 25.472L512 928 96 640l48.256-33.408 27.968 19.552-20 13.856L512 889.088l7.456-5.184z m-7.808-251.104a239.008 239.008 0 0 0-14.176 29.12L96 384l416-288 416 288-186.304 128.96a243.072 243.072 0 0 0-58.944 1.92L871.776 384 512 134.912 152.224 384l359.424 248.832zM895.296 768a175.296 175.296 0 0 1-44.384 101.632l-34.016-33.984A127.488 127.488 0 0 0 847.008 768h-53.856l76.992-96 75.456 96h-50.304zM736 879.04a127.264 127.264 0 0 0 57.088-21.952l34.336 34.336A175.104 175.104 0 0 1 736 927.264V879.04z m65.92-225.408A127.424 127.424 0 0 0 736 624.96v-48.288a175.264 175.264 0 0 1 99.936 42.88l-34.048 34.048zM704 624.96c-25.696 3.2-49.024 14.016-67.648 30.112l-33.984-34.016A175.296 175.296 0 0 1 704 576.704v48.288z m-89.088 53.92A127.264 127.264 0 0 0 592.96 736h-48.288c3.104-34.24 16-65.664 35.872-91.424l34.336 34.336zM592.96 768c3.104 24.896 13.344 47.552 28.64 65.92l-34.048 34.016A175.264 175.264 0 0 1 544.704 768h48.288z m52.032 87.744c16.992 12.32 37.12 20.544 58.976 23.264v48.288a175.136 175.136 0 0 1-93.216-37.28l34.24-34.24z" p-id="7019"></path></svg>