<?xml version="1.0" standalone="no"?><!DOCTYPE svg PUBLIC "-//W3C//DTD SVG 1.1//EN" "http://www.w3.org/Graphics/SVG/1.1/DTD/svg11.dtd"><svg t="1639305638846" class="icon" viewBox="0 0 1024 1024" version="1.1" xmlns="http://www.w3.org/2000/svg" p-id="6243" width="16" height="16" xmlns:xlink="http://www.w3.org/1999/xlink"><defs><style type="text/css"></style></defs><path d="M751.5 160.5v608c0 17.7-14.3 32-32 32h-511c-17.7 0-32-14.3-32-32v-608c0-17.7 14.3-32 32-32h511c17.7 0 32 14.3 32 32z m0-96h-575c-35.3 0-64 28.7-64 64v672c0 35.3 28.7 64 64 64h575c35.3 0 64-28.7 64-64v-672c0-35.3-28.7-64-64-64z" p-id="6244"></path><path d="M639.5 288.5h-352c-17.7 0-32-14.3-32-32s14.3-32 32-32h352c17.7 0 32 14.3 32 32s-14.3 32-32 32zM639.5 480.5h-352c-17.7 0-32-14.3-32-32s14.3-32 32-32h352c17.7 0 32 14.3 32 32s-14.3 32-32 32zM447.5 672.5h-160c-17.7 0-32-14.3-32-32s14.3-32 32-32h160c17.7 0 32 14.3 32 32s-14.3 32-32 32z" p-id="6245"></path><path d="M847.5 159.5h-0.5v90.4c0.3 1.8 0.5 3.7 0.5 5.6v608c0 17.7-14.3 32-32 32h-639c0 35.3 28.7 64 64 64h607c35.3 0 64-28.7 64-64v-672c0-35.3-28.7-64-64-64z" p-id="6246"></path></svg>