<?xml version="1.0" standalone="no"?><!DOCTYPE svg PUBLIC "-//W3C//DTD SVG 1.1//EN" "http://www.w3.org/Graphics/SVG/1.1/DTD/svg11.dtd"><svg t="1639719985871" class="icon" viewBox="0 0 1088 1024" version="1.1" xmlns="http://www.w3.org/2000/svg" p-id="4100" width="17" height="16" xmlns:xlink="http://www.w3.org/1999/xlink"><defs><style type="text/css"></style></defs><path d="M427.692761 854.380368h37.693251v100.515338h-37.693251zM565.90135 854.380368h37.693251v100.515338h-37.693251zM190.162454 549.693252h125.644172v75.386503h-125.644172zM190.162454 392.638037h125.644172v75.386503h-125.644172zM683.755583 747.582822a239.038037 239.038037 0 1 1 168.6773-69.983804A237.530307 237.530307 0 0 1 683.755583 747.582822z m0-402.06135a163.651534 163.651534 0 1 0 115.278527 47.807608A163.023313 163.023313 0 0 0 683.755583 345.521472z" p-id="4101"></path><path d="M75.386503 84.307239V0H0v1024h75.386503v-94.233129h164.719509v94.233129h559.116565v-94.233129h288.981595V84.307239zM1012.817669 854.380368h-288.981595v94.233129h-408.343559v-94.233129H75.386503V159.693742h937.431166z" p-id="4102"></path></svg>