<?xml version="1.0" standalone="no"?><!DOCTYPE svg PUBLIC "-//W3C//DTD SVG 1.1//EN" "http://www.w3.org/Graphics/SVG/1.1/DTD/svg11.dtd"><svg t="1639719839853" class="icon" viewBox="0 0 1024 1024" version="1.1" xmlns="http://www.w3.org/2000/svg" p-id="1686" width="16" height="16" xmlns:xlink="http://www.w3.org/1999/xlink"><defs><style type="text/css"></style></defs><path d="M636.91 514.82c0 67.06-51.38 121.42-114.75 121.42s-114.75-54.36-114.75-121.42S458.78 393.4 522.16 393.4s114.75 54.36 114.75 121.42z"  p-id="1687"></path><path d="M678.31 96.61C448.95 4.78 188.5 116.25 96.64 345.64c-91.9 229.43 19.63 489.89 249.03 581.73 229.4 91.87 489.83-19.63 581.7-249.03 91.89-229.42-19.66-489.83-249.06-581.73zM366.47 875.47c-200.4-80.26-298.16-308.56-217.94-508.99 80.26-200.4 308.6-298.19 509.02-217.91 200.4 80.23 298.16 308.57 217.93 508.97C795.2 857.97 566.9 955.7 366.47 875.47z m0 0"  p-id="1688"></path><path d="M532.84 460.08c-28.43-10.49-60.04 3.55-71.31 31.67-11.28 28.12 1.87 60.1 29.66 72.16 28.43 10.49 60.03-3.55 71.31-31.67 11.28-28.12-1.87-60.1-29.66-72.16z m-31.24 77.91c-14.32-5.77-21.29-22.03-15.58-36.39 5.77-14.32 22.04-21.28 36.38-15.57 13.55 6.24 19.84 22.01 14.29 35.86-5.55 13.86-20.97 20.94-35.09 16.1z m0 0"  p-id="1689"></path><path d="M574.37 356.27c-55.77-22.83-119.49-14.01-166.96 23.12-47.46 37.12-71.37 96.85-62.64 156.47 8.73 59.62 48.76 109.98 104.88 131.95 85.82 33.58 182.66-8.34 216.91-93.89 34.25-85.56-6.91-182.73-92.19-217.65zM470.44 615.85c-57.29-23.02-85.15-88.07-62.28-145.42 23.02-57.28 88.04-85.13 145.39-62.28 57.31 23.02 85.19 88.07 62.34 145.44-23.02 57.3-88.09 85.15-145.45 62.26z m0 0M719.73 595.18c2.87-7.18-0.63-15.32-7.8-18.18-7.18-2.86-15.32 0.63-18.18 7.8v-0.03a195.208 195.208 0 0 1-104.7 107.22c-6.99 3.11-10.17 11.26-7.16 18.29 3.01 7.03 11.1 10.33 18.17 7.42 0.28-0.12 0.39-0.34 0.59-0.42a223.085 223.085 0 0 0 119.02-122.09h0.06z m96 23.38c-7.17-2.87-15.3 0.61-18.18 7.78a306.613 306.613 0 0 1-164.52 168.43c-6.98 3.12-10.17 11.26-7.16 18.28 3.01 7.03 11.1 10.33 18.17 7.42 0.34-0.17 0.59-0.48 0.93-0.62a334.505 334.505 0 0 0 178.55-183.11c2.87-7.18-0.62-15.31-7.79-18.18z m0 0"  p-id="1690"></path><path d="M763.8 597.78c-7.16-2.87-15.3 0.61-18.17 7.78a250.51 250.51 0 0 1-134.57 137.81h0.05c-7.1 3.03-10.41 11.24-7.38 18.35 3.02 7.11 11.24 10.41 18.34 7.38 0.28-0.14 0.44-0.39 0.75-0.56A278.783 278.783 0 0 0 771.6 615.96c2.85-7.18-0.63-15.31-7.8-18.18z m-321.46-284.1a13.997 13.997 0 0 0-18.38-7.33c-0.25 0.09-0.39 0.31-0.58 0.39a223.053 223.053 0 0 0-119.02 122.09h-0.03a13.982 13.982 0 0 0 14.94 19.3c5.01-0.76 9.22-4.16 11-8.89h0.03a195.049 195.049 0 0 1 104.67-107.16c3.41-1.46 6.11-4.22 7.49-7.68 1.4-3.44 1.35-7.3-0.12-10.72zM398.3 210.85c-3.06-7.1-11.28-10.38-18.38-7.35-0.34 0.14-0.59 0.44-0.87 0.59A334.474 334.474 0 0 0 200.5 387.2a13.94 13.94 0 0 0 1.97 13.84c3.08 3.93 8.03 5.92 12.97 5.22 4.95-0.7 9.14-3.99 11-8.63a306.833 306.833 0 0 1 164.52-168.41c7.1-3.05 10.37-11.27 7.34-18.37z m0 0"  p-id="1691"></path><path d="M412.98 280.6a14 14 0 0 0 8.93-11.23c0.68-5.1-1.49-10.16-5.66-13.18a13.98 13.98 0 0 0-14.29-1.26c-0.28 0.11-0.45 0.39-0.73 0.5a278.823 278.823 0 0 0-148.77 152.63c-2.53 7.07 0.98 14.87 7.94 17.68 6.97 2.81 14.9-0.4 17.98-7.25a250.701 250.701 0 0 1 134.57-137.81v-0.08h0.03z m0 0" p-id="1692"></path></svg>
