<?xml version="1.0" standalone="no"?><!DOCTYPE svg PUBLIC "-//W3C//DTD SVG 1.1//EN" "http://www.w3.org/Graphics/SVG/1.1/DTD/svg11.dtd"><svg t="1639720060836" class="icon" viewBox="0 0 1024 1024" version="1.1" xmlns="http://www.w3.org/2000/svg" p-id="4441" width="16" height="16" xmlns:xlink="http://www.w3.org/1999/xlink"><defs><style type="text/css"></style></defs><path d="M810.6 673.4v246.3H213.5V673.4h597.1m39.8-39.8H173.7v325.9h676.7V633.6z" p-id="4442"></path><path d="M273.2 723.8H313v145.6h-39.8zM346.2 723.8H386v145.6h-39.8zM419.2 723.8H459v145.6h-39.8zM492.2 723.8H532v145.6h-39.8zM638.1 723.8h39.8v145.6h-39.8zM565.1 723.8h39.8v145.6h-39.8zM711.1 723.8h39.8v145.6h-39.8zM64.2 63.9v608.2h895.7V63.9H64.2z m475.9 437.2c-15.5 15.5-40.7 15.5-56.2 0s-15.5-40.7 0-56.2 40.7-15.5 56.2 0 15.5 40.7 0 56.2z m63.2-78.1c-3.9 3.9-9 5.8-14.1 5.8s-10.2-1.9-14.1-5.8c-16.8-16.8-39.2-26.1-63.1-26.1-23.8 0-46.2 9.3-63.1 26.1-7.8 7.8-20.4 7.8-28.1 0-7.8-7.8-7.8-20.4 0-28.1 24.4-24.4 56.8-37.8 91.2-37.8s66.9 13.4 91.2 37.8c7.9 7.7 7.9 20.3 0.1 28.1z m54.2-45.9c-3.9 3.9-9 5.8-14.1 5.8s-10.2-1.9-14.1-5.8c-31.3-31.3-73-48.6-117.2-48.6s-85.9 17.2-117.2 48.6c-7.8 7.8-20.4 7.8-28.2 0-7.8-7.8-7.8-20.4 0-28.2 38.8-38.8 90.5-60.2 145.4-60.2 54.9 0 106.6 21.4 145.4 60.2 7.7 7.8 7.7 20.4 0 28.2z m40.4-48.8c-3.9 3.9-9 5.8-14.1 5.8s-10.2-1.9-14.1-5.8C627.6 286.2 571.6 263 512 263s-115.6 23.2-157.7 65.3c-7.8 7.8-20.4 7.8-28.2 0-7.8-7.8-7.8-20.4 0-28.2 49.6-49.6 115.7-77 185.9-77s136.2 27.3 185.9 77c7.8 7.9 7.8 20.5 0 28.2z" p-id="4443"></path></svg>