<?xml version="1.0" standalone="no"?><!DOCTYPE svg PUBLIC "-//W3C//DTD SVG 1.1//EN" "http://www.w3.org/Graphics/SVG/1.1/DTD/svg11.dtd"><svg t="1639305036185" class="icon" viewBox="0 0 1024 1024" version="1.1" xmlns="http://www.w3.org/2000/svg" p-id="901" width="16" height="16" xmlns:xlink="http://www.w3.org/1999/xlink"><defs><style type="text/css"></style></defs><path d="M50.4 547.7c-10.2 0-20.5-3.9-28.3-11.7-15.6-15.6-15.6-40.9 0-56.6L483.7 17.7c15.6-15.6 40.9-15.6 56.6 0 15.6 15.6 15.6 40.9 0 56.6L78.6 536c-7.8 7.8-18 11.7-28.2 11.7z" p-id="902"></path><path d="M973.6 547.7c-10.2 0-20.5-3.9-28.3-11.7L483.7 74.3c-15.6-15.6-15.6-40.9 0-56.6 15.6-15.6 40.9-15.6 56.6 0l461.6 461.6c15.6 15.6 15.6 40.9 0 56.6-7.8 7.9-18 11.8-28.3 11.8zM156.6 993.6c-22.1 0-40-17.9-40-40V414.4c0-22.1 17.9-40 40-40s40 17.9 40 40v539.2c0 22-17.9 40-40 40z" p-id="903"></path><path d="M438.5 993.6h-282c-22.1 0-40-17.9-40-40s17.9-40 40-40h282c22.1 0 40 17.9 40 40s-17.9 40-40 40zM875 993.6H585.5c-22.1 0-40-17.9-40-40s17.9-40 40-40H875c22.1 0 40 17.9 40 40s-17.9 40-40 40z" p-id="904"></path><path d="M875 993.6c-22.1 0-40-17.9-40-40V414.4c0-22.1 17.9-40 40-40s40 17.9 40 40v539.2c0 22-17.9 40-40 40zM585.5 993.6c-22.1 0-40-17.9-40-40V690.9h-66.9v262.6c0 22.1-17.9 40-40 40s-40-17.9-40-40V650.9c0-22.1 17.9-40 40-40h146.9c22.1 0 40 17.9 40 40v302.6c0 22.1-18 40.1-40 40.1z" p-id="905"></path></svg>